<?xml version="1.0" encoding="UTF-8"?>
<svg width="116px" height="26px" viewBox="0 0 116 26" version="1.1" xmlns="http://www.w3.org/2000/svg" xmlns:xlink="http://www.w3.org/1999/xlink">
    <title>形状结合</title>
    <g id="-" stroke="none" stroke-width="1" fill="none" fill-rule="evenodd">
        <g id="顶部栏/LOGO" transform="translate(-24.000000, -19.000000)" fill="#FF801F">
            <path d="M77.4725893,26.2687493 C77.4312759,26.432385 77.2997743,26.9523728 77.150594,27.5457618 L76.9982063,28.1531383 C76.9642264,28.2888904 76.930567,28.4236096 76.8980239,28.5541908 L76.804539,28.9304156 L76.804539,28.9304156 L76.7618001,29.1033956 C79.0485949,27.1169922 82.4838405,26.2790367 85.2581275,26.2790367 C88.3537269,26.2790367 90.5714171,26.8944103 91.6869611,28.1924931 C92.7837012,29.4681306 93.2020889,31.0659509 92.5881401,33.6284486 L92.5881401,33.6284486 L89.722419,45 L82.905519,44.9971943 L85.3093682,35.4378619 C86.3661499,31.0968131 85.7329271,29.0828208 81.8433311,29.3853638 C78.6600584,29.6348333 76.131868,31.4807201 75.0142085,36.0782526 L75.0142085,36.0782526 L72.7770092,44.9971943 L65.9664555,44.9971943 C66.1276602,44.3357223 66.4254464,43.1370885 66.7959086,41.6538199 L66.947818,41.0459305 C67.258783,39.8021851 67.6108073,38.3978224 67.9711711,36.9621364 L68.1518965,36.2422818 L68.1518965,36.2422818 L68.3331029,35.520798 C69.2992041,31.6749255 70.2470509,27.9127839 70.55618,26.6861688 L70.6257701,26.4100582 C70.6487596,26.3188513 70.6608603,26.2708536 70.6608603,26.2708536 L70.6608603,26.2708536 Z M125.40697,27.6635571 C128.485646,26.2291662 132.622279,25.942288 136.001583,26.620555 C138.924186,27.2034297 140.49455,29.3102424 139.860622,31.8507626 L139.860622,31.8507626 L136.56194,44.9971242 L126.328599,44.9978256 C114.735497,45.120573 116.691107,34.4055448 126.204493,32.7109295 C128.565563,32.2910165 130.533866,32.2578163 132.93889,32.2877432 C134.021292,28.1381803 129.788289,28.5896568 126.460226,29.5082749 C124.585708,30.0268534 123.086093,30.6314719 122.329235,31.0151451 C122.719887,29.793984 123.358045,28.6184148 125.40697,27.6635571 Z M62.0613934,26.2791069 C63.7365898,26.2791069 65.0813069,26.5652836 66.0847324,27.13904 C67.0007195,27.6636973 67.432035,28.3368206 67.3718624,29.1661253 C67.2952363,30.1836427 66.5433136,31.2776141 65.100816,32.4342452 C63.6681904,33.5840959 61.8651272,34.5518129 59.6925664,35.3301482 C56.5142297,36.4792975 53.5204067,37.0551581 50.7242601,37.0551581 L50.7242601,37.0551581 L48.8137793,37.032479 C47.7116331,37.032479 47.1251851,37.8182961 47.1548013,39.1591651 C47.1778361,40.1322596 47.5962239,40.8109942 48.483065,41.3613701 C49.3689658,41.9087065 50.5482082,42.1836607 52.0102149,42.1836607 C55.8215394,42.1836607 59.6718821,41.0204831 63.5807521,38.7032463 C64.242886,38.3006349 64.8335649,37.9627873 65.2329137,37.9412773 C65.7131194,37.9129869 65.9549851,38.319573 65.9394719,38.5978004 C65.9143216,39.0226233 65.4115511,39.5914697 64.3300893,40.4116561 C63.2603799,41.2381551 62.0790221,41.9358278 60.7824901,42.5105194 C59.1258626,43.2500432 57.4027161,43.9367271 55.2576561,44.3947502 C53.1041343,44.8569818 50.93839,44.9972645 49.1254547,44.9972645 C46.7089128,44.9972645 44.7772776,44.5745459 43.3183265,43.7246664 C41.8636064,42.8775925 41.1347184,41.7506547 41.1347184,40.3466584 C41.1347184,38.0146919 42.3701376,35.5807867 44.9740138,33.0926388 C47.1665538,30.9993867 49.8660951,29.3686001 52.9576986,28.1539855 C56.1727031,26.9052354 59.2034288,26.2791069 62.0613934,26.2791069 Z M121.809494,19 L116.061128,41.9320168 C115.59526,43.795439 113.876814,45.0004676 112.025566,44.9976668 C111.876813,44.9972987 111.72478,44.9970358 111.569649,44.9968555 L110.09484,44.9968555 C109.922788,44.9969682 109.748192,44.9970959 109.571237,44.9972161 L108.482668,44.9976668 C108.54237,44.7600419 108.593481,44.5548383 108.644887,44.348215 L108.723329,44.032985 C108.804215,43.7082299 108.895767,43.3422089 109.027982,42.8207079 C106.099268,44.833765 102.056655,45.0198734 100.582191,44.9754505 C99.5423325,44.9441207 97.1970105,44.6572425 95.774022,43.5183806 C93.7974923,41.9345887 92.9672982,39.6374591 93.5027405,36.5540448 C94.038888,33.4898025 95.6626086,31.1840222 98.2107781,29.6381065 C100.765529,28.0889177 104.307722,27.2900076 108.835947,27.2701342 C109.222956,27.2686144 109.574898,27.2676208 109.909388,27.2669997 L112.366048,27.2669312 L112.366048,27.2669312 L112.92416,27.2673285 L114.995649,19.0007014 L121.809494,19 Z M54.9609299,24.7667422 L42.357821,28.1253444 L38.1288139,44.997849 L30.0264292,44.997849 L34.2521457,28.1339952 L24,28.1339952 L24.8431219,24.7667422 L54.9609299,24.7667422 Z M112.150847,30.3537822 C108.851225,30.2378152 105.253796,29.9158663 102.424977,31.8438186 C100.918311,32.8662458 100.05333,34.4472321 99.6788961,36.5643322 C99.2999966,38.7151002 99.6060308,40.3021654 100.739674,41.3414266 C102.904713,43.3240891 106.267563,42.8164994 109.027982,42.8207079 L109.027982,42.8207079 Z M132.391695,34.4639959 C130.488736,34.4749847 129.471678,34.4181702 127.641114,34.9199148 C122.509752,36.32508 122.328059,42.4283137 128.725161,42.3390004 L128.725161,42.3390004 L130.425038,42.3027607 Z M58.7262787,28.6915021 C56.6695973,28.6915021 54.4671853,29.5261843 52.1260942,31.191574 C51.3109432,31.768136 50.5688925,32.4078253 49.9058184,33.1087713 C49.2338124,33.8122891 48.9021579,34.2957969 48.9021579,34.5646721 C48.9021579,34.8737617 49.417621,35.020591 50.4412607,35.020591 C52.8984662,35.020591 55.0233119,34.7299719 56.8056908,34.1389141 C58.1022228,33.7101165 59.1843898,33.1256052 60.0615938,32.3872505 C60.9390329,31.6570789 61.3769298,30.9573019 61.3769298,30.2975055 C61.3769298,29.7978652 61.144231,29.4085806 60.6753076,29.1266124 C60.2077945,28.8451117 59.5644646,28.7029585 58.7262787,28.6915021 Z" id="形状结合"></path>
        </g>
    </g>
</svg>